Fly_normalized_Motion_pl13
version=1
nRows=21
nColumns=43
inDegrees=yes
endheader
time		pelvis_tilt		pelvis_list		pelvis_rotation		pelvis_tx		pelvis_ty		pelvis_tz		hip_flexion_r		hip_adduction_r		hip_rotation_r		knee_angle_r		ankle_angle_r		subtalar_angle_r		mtp_angle_r		hip_flexion_l		hip_adduction_l		hip_rotation_l		knee_angle_l		ankle_angle_l		subtalar_angle_l		mtp_angle_l		lumbar_extension		lumbar_bending		lumbar_rotation		neck_flexion		neck_lateral_bending		neck_rotation		arm_flex_r		arm_add_r		arm_rot_r		elbow_flex_r		pro_sup_r		wrist_flex_r		wrist_dev_r		hand_finger_flex_r		arm_flex_l		arm_add_l		arm_rot_l		elbow_flex_l		pro_sup_l		wrist_flex_l		wrist_dev_l		hand_finger_flex_l		
1.319167		0.768493		-6.506691		87.714163		0.048479		1.777743		1.256849		63.212671		0.540338		-0.122353		-112.952250		-11.612401		-12.515437		2.486416		73.900422		-3.771010		4.047807		-92.620883		-11.821757		-9.332109		8.557297		-52.394441		-1.333538		6.356671		30.486176		3.003260		-4.792833		67.758392		-27.165981		8.982167		56.798841		117.960682		1.424481		-14.313944		-5.742437		64.337411		-23.746810		18.399065		48.277303		117.775222		-18.437642		-4.935292		-3.354822		
1.323384		0.896279		-6.028894		87.655394		0.048227		1.773461		1.248804		63.441713		0.562512		-0.323081		-112.073829		-11.420937		-12.212742		2.546562		73.351751		-3.894609		4.136340		-91.304784		-12.119002		-9.127851		9.237863		-53.080250		-1.226375		6.438716		30.616973		2.843366		-4.642103		66.325639		-27.235253		8.632636		56.143349		118.350253		1.364140		-14.328738		-5.774205		62.621343		-23.892998		17.748190		47.517341		118.366565		-18.359562		-5.164725		-3.480504		
1.327601		1.053581		-5.535948		87.596808		0.047977		1.769083		1.240621		63.578686		0.589494		-0.543298		-111.118802		-11.236185		-11.791260		2.650582		72.726729		-4.066282		4.215459		-89.957652		-12.412490		-8.976053		10.295594		-53.762024		-1.096750		6.539243		30.730487		2.666084		-4.496706		64.824123		-27.276291		8.218424		55.505352		118.960519		1.293982		-14.369212		-5.822733		60.825491		-23.938935		16.839876		46.676729		119.304781		-18.073353		-5.491591		-3.611842		
1.331818		1.135021		-5.200228		87.454838		0.047894		1.764149		1.232434		63.890682		0.664414		-0.663665		-110.136802		-11.312144		-11.488366		2.698615		72.228004		-4.281670		4.203776		-88.602960		-12.715104		-8.926454		10.403297		-54.244808		-1.115216		6.662732		30.832979		2.577986		-4.409252		63.082461		-27.356601		7.733359		54.987125		118.798862		0.924699		-14.265445		-6.039019		59.036020		-24.079934		16.512883		45.958670		119.276132		-18.131765		-5.356640		-3.693415		
1.336035		1.227129		-4.790324		87.288412		0.047856		1.759358		1.224062		63.998010		0.785234		-0.737052		-109.044138		-11.196832		-10.803920		2.958538		71.572429		-4.517090		4.170197		-87.233225		-12.940933		-9.034903		10.657721		-54.816484		-1.175890		6.817079		31.092503		2.575752		-4.361424		61.271483		-27.471609		7.229326		54.522133		118.688623		0.494319		-14.110920		-6.322200		57.162588		-24.112861		15.844392		45.250783		119.515215		-17.966116		-5.497144		-3.753468		
1.340253		1.353064		-4.434993		87.199099		0.047678		1.753984		1.215666		64.144983		0.857722		-0.869908		-107.942327		-11.374047		-10.242385		3.093273		71.028385		-4.703248		4.208575		-85.935444		-13.282594		-9.037652		10.665095		-55.254208		-1.128156		6.913217		30.994433		2.480814		-4.286083		59.393638		-27.503391		6.677815		54.023724		118.416577		0.212512		-14.054971		-6.514526		55.153576		-24.310670		15.457379		44.676646		119.541133		-17.934382		-5.439976		-3.803729		
1.344470		1.481099		-4.190581		87.143617		0.047496		1.748427		1.207392		64.269897		0.937486		-1.012212		-106.689004		-11.342100		-9.725605		3.308502		70.552972		-4.844900		4.274694		-84.585938		-13.511166		-9.119136		10.650363		-55.585335		-1.081081		6.976959		31.070668		2.488724		-4.249998		57.597424		-27.603230		6.317452		53.408627		118.216576		0.150178		-13.960693		-6.616314		53.173448		-24.501992		15.076323		44.056641		119.615214		-17.786346		-5.364527		-3.829338		
1.348687		1.680927		-3.897570		87.132448		0.047357		1.742462		1.198930		64.292349		1.052917		-1.187145		-105.434644		-11.414280		-9.077241		3.545462		70.068015		-4.997310		4.423252		-83.330799		-13.909896		-9.205907		10.545282		-55.899908		-0.956927		7.053488		30.968521		2.486469		-4.195721		55.641831		-27.549710		5.682808		52.833952		117.888356		0.097614		-13.925555		-6.712527		51.001047		-24.695642		14.564982		43.577563		119.595395		-17.709637		-5.275721		-3.891212		
1.352904		1.940904		-3.594627		87.164671		0.047192		1.736220		1.190330		64.212327		1.175809		-1.403399		-104.128263		-11.403888		-8.286426		3.930867		69.575277		-5.132833		4.644730		-82.114941		-14.392702		-9.335860		10.350171		-56.202539		-0.768254		7.120277		30.892384		2.543646		-4.105901		53.606227		-27.384580		4.837984		52.288590		117.522184		0.244069		-13.931279		-6.704067		48.657936		-24.915905		13.880250		43.277753		119.513758		-17.584281		-5.197429		-4.001226		
1.357121		2.119895		-3.398194		87.214181		0.046860		1.729718		1.181830		64.141785		1.208195		-1.570326		-102.714217		-11.276077		-7.640170		4.491366		69.088124		-5.208641		4.789348		-80.779594		-14.680553		-9.442294		10.116854		-56.388101		-0.596369		7.091702		30.910906		2.560154		-3.994288		51.696334		-27.347478		4.328767		51.691212		117.428178		0.731387		-13.868202		-6.528981		46.368706		-25.180933		13.340596		42.877780		119.553340		-17.206872		-5.071869		-4.119978		
1.361338		2.239760		-2.994657		87.193385		0.046908		1.722794		1.172878		63.877577		1.288455		-1.643460		-101.411023		-11.468968		-7.047440		4.780577		68.416735		-5.371153		4.864233		-79.609900		-15.152462		-9.255553		9.931691		-56.676513		-0.590053		7.041729		30.608777		2.735542		-3.908034		49.429061		-27.212789		3.567557		51.294736		117.122694		0.831518		-13.926935		-6.472780		43.849364		-25.625551		13.047889		42.823583		119.298705		-17.207893		-5.077862		-4.305635		
1.365556		2.299638		-2.637663		87.138086		0.046840		1.715904		1.163987		63.550489		1.335398		-1.652647		-99.968644		-11.552110		-6.469711		5.095698		67.659931		-5.520201		4.870133		-78.311545		-15.438369		-8.997588		9.777090		-56.935935		-0.625266		6.954361		30.471560		2.881099		-3.803876		47.247150		-27.116214		2.945097		50.863926		116.856941		1.089407		-13.940783		-6.318037		41.395648		-26.025788		12.827688		42.630754		118.914582		-17.138183		-5.031625		-4.489365		
1.369773		2.315682		-2.138979		87.022363		0.046800		1.709234		1.154896		62.988222		1.413765		-1.543016		-98.466567		-11.656414		-5.724265		5.455472		66.650050		-5.703540		4.824927		-76.974488		-15.620466		-8.445073		9.662893		-57.345411		-0.738705		6.856616		30.468044		3.055379		-3.690042		45.006378		-26.925246		2.108237		50.485018		116.406277		1.380510		-13.928532		-6.129035		38.905670		-26.331488		12.484550		42.407959		118.251998		-17.103174		-5.039220		-4.720042		
1.373990		2.317095		-1.700485		86.927734		0.046731		1.702054		1.145766		62.452012		1.464452		-1.449235		-96.948508		-11.854746		-5.156270		5.698022		65.711855		-5.858826		4.783892		-75.682690		-15.815678		-7.853421		9.596650		-57.596829		-0.831230		6.792752		30.144496		3.127784		-3.639544		42.678116		-26.918953		1.592866		50.146653		116.066590		1.583776		-13.906535		-6.010183		36.498143		-26.530678		12.290230		41.930648		117.789310		-17.069652		-5.102168		-4.869663		
1.378207		2.327125		-1.277222		86.840576		0.046579		1.694669		1.136574		61.871200		1.526141		-1.337174		-95.383561		-12.088689		-4.607644		5.918648		64.768331		-5.997298		4.764432		-74.399878		-16.032192		-7.209691		9.549800		-57.799414		-0.896307		6.746558		29.772654		3.172606		-3.611629		40.286798		-26.927887		1.090863		49.849546		115.712617		1.733100		-13.899189		-5.933434		34.092799		-26.629155		12.068192		41.340460		117.379776		-17.053164		-5.190838		-5.003375		
1.382424		2.352865		-0.687844		86.743886		0.046308		1.687185		1.127146		61.076124		1.590275		-1.188628		-93.836624		-12.452543		-3.910190		6.220736		63.683172		-6.139090		4.758615		-73.241108		-16.378788		-6.320643		9.519778		-58.115099		-0.953630		6.770179		29.232703		3.204359		-3.603262		37.668629		-26.938735		0.334934		49.746472		115.209245		1.808523		-13.951317		-5.916240		31.605629		-26.551270		11.639569		40.765529		116.928724		-17.085271		-5.418397		-5.189690		
1.386641		2.394836		-0.288922		86.703655		0.046057		1.679303		1.117852		60.409943		1.631727		-1.102254		-92.194874		-12.824428		-3.378578		6.383564		62.758873		-6.263652		4.719779		-71.979602		-16.846770		-5.725268		9.488078		-58.215335		-0.949612		6.770294		28.698876		3.227475		-3.612177		35.073933		-26.943915		-0.231520		49.572791		114.814496		1.753616		-14.059546		-5.988983		29.154600		-26.471810		11.320425		40.104989		116.655455		-17.151525		-5.529262		-5.339220		
1.390859		2.454796		0.140168		86.646590		0.045662		1.671338		1.108432		59.628127		1.667349		-1.019519		-90.485775		-13.164449		-2.837159		6.585823		61.794163		-6.400400		4.606410		-70.740825		-17.356594		-5.271754		9.478051		-58.330558		-0.932003		6.783416		28.190102		3.266540		-3.668591		32.449852		-26.927618		-0.832625		49.438900		114.392188		1.686342		-14.187335		-6.104492		26.662830		-26.364939		11.011774		39.442149		116.398353		-17.165632		-5.674070		-5.528246		
1.395076		2.513831		0.548310		86.596449		0.045474		1.662968		1.098960		58.844157		1.688294		-0.982061		-88.781245		-13.536949		-2.372226		6.736331		60.851163		-6.559679		4.420328		-69.519038		-17.978636		-5.034943		9.458952		-58.348441		-0.922903		6.786434		27.503633		3.305972		-3.716242		29.786493		-26.887855		-1.314158		49.282484		114.028406		1.609690		-14.344641		-6.240209		24.120360		-26.320194		10.800888		38.846750		116.159869		-17.183345		-5.783725		-5.732105		
1.399293		2.575110		1.004328		86.515229		0.045306		1.654386		1.089361		57.956582		1.723048		-0.924182		-87.051972		-13.919494		-1.929154		6.880692		59.826268		-6.736943		4.200924		-68.312380		-18.634306		-4.881775		9.463480		-58.357321		-0.927071		6.790921		26.727594		3.350733		-3.783018		27.097469		-26.809903		-1.795309		49.134917		113.659291		1.533416		-14.537023		-6.400007		21.524934		-26.261601		10.615137		38.266503		115.848370		-17.180513		-5.887981		-5.980444		
1.403510		2.621315		1.568028		86.406653		0.045343		1.645845		1.079615		56.882813		1.784391		-0.831234		-85.277319		-14.283899		-1.476908		7.117755		58.591485		-6.938010		4.000034		-67.060812		-19.186277		-4.579660		9.584793		-58.438963		-0.983050		6.812336		25.924655		3.366310		-3.901106		24.347412		-26.694706		-2.320664		49.015581		113.266689		1.519252		-14.732362		-6.597417		18.961387		-26.183399		10.434354		37.663429		115.367357		-17.074670		-6.018005		-6.368590		
